<svg width="16" height="16" viewBox="0 0 16 16" fill="none" xmlns="http://www.w3.org/2000/svg">
<path d="M12.6742 0.470589H3.32827C2.76592 0.470589 2.30945 0.927059 2.30945 1.48941V14.5129C2.30945 15.0753 2.76592 15.5294 3.32827 15.5294H12.6742C13.2342 15.5294 13.6906 15.0753 13.6906 14.5129V1.48941C13.6906 0.927059 13.2365 0.470589 12.6742 0.470589ZM5.97298 13.5882C5.97298 13.7929 5.80827 13.9576 5.60357 13.9576H4.46474C4.26004 13.9576 4.09533 13.7929 4.09533 13.5882V12.5812C4.09533 12.3765 4.26004 12.2118 4.46474 12.2118H5.60357C5.80827 12.2118 5.97298 12.3765 5.97298 12.5812V13.5882ZM5.97298 10.7647C5.97298 10.9671 5.80827 11.1318 5.60357 11.1318H4.46474C4.26004 11.1318 4.09533 10.9671 4.09533 10.7647V9.75529C4.09533 9.55294 4.26004 9.38824 4.46474 9.38824H5.60357C5.80827 9.38824 5.97298 9.55294 5.97298 9.75529V10.7647ZM5.97298 7.94118C5.97298 8.14353 5.80827 8.30824 5.60357 8.30824H4.46474C4.26004 8.30824 4.09533 8.14353 4.09533 7.94118V6.93177C4.09533 6.72941 4.26004 6.56235 4.46474 6.56235H5.60357C5.80827 6.56235 5.97298 6.72941 5.97298 6.93177V7.94118ZM8.93768 13.5882C8.93768 13.7929 8.77298 13.9576 8.57063 13.9576H7.42945C7.2271 13.9576 7.06239 13.7929 7.06239 13.5882V12.5788C7.06239 12.3765 7.2271 12.2118 7.42945 12.2118H8.57063C8.77298 12.2118 8.93768 12.3765 8.93768 12.5788V13.5882ZM8.93768 10.7647C8.93768 10.9671 8.77298 11.1318 8.57063 11.1318H7.42945C7.2271 11.1318 7.06239 10.9671 7.06239 10.7647V9.75529C7.06239 9.55294 7.2271 9.38824 7.42945 9.38824H8.57063C8.77298 9.38824 8.93768 9.55294 8.93768 9.75529V10.7647ZM8.93768 7.94118C8.93768 8.14353 8.77298 8.30824 8.57063 8.30824H7.42945C7.2271 8.30824 7.06239 8.14353 7.06239 7.94118V6.93177C7.06239 6.72941 7.2271 6.56235 7.42945 6.56235H8.57063C8.77298 6.56235 8.93768 6.72941 8.93768 6.93177V7.94118ZM11.9047 13.5882C11.9047 13.7929 11.74 13.9576 11.5377 13.9576H10.3965C10.1942 13.9576 10.0294 13.7929 10.0294 13.5882V12.5788C10.0294 12.3765 10.1942 12.2118 10.3965 12.2118H11.5377C11.74 12.2118 11.9047 12.3765 11.9047 12.5788V13.5882ZM11.9047 10.7647C11.9047 10.9671 11.74 11.1318 11.5377 11.1318H10.3965C10.1942 11.1318 10.0294 10.9671 10.0294 10.7647V9.75529C10.0294 9.55294 10.1942 9.38824 10.3965 9.38824H11.5377C11.74 9.38824 11.9047 9.55294 11.9047 9.75529V10.7647ZM11.9047 7.94118C11.9047 8.14353 11.74 8.30824 11.5377 8.30824H10.3965C10.1942 8.30824 10.0294 8.14353 10.0294 7.94118V6.93177C10.0294 6.72941 10.1942 6.56235 10.3965 6.56235H11.5377C11.74 6.56235 11.9047 6.72941 11.9047 6.93177V7.94118ZM12.2789 4.43529C12.2789 4.75059 12.0224 5.00706 11.7071 5.00706H4.29298C3.97768 5.00706 3.72121 4.75059 3.72121 4.43529V2.45412C3.72121 2.13882 3.97768 1.88471 4.29298 1.88471H11.7071C12.0224 1.88471 12.2789 2.13882 12.2789 2.45412V4.43529Z" fill="white"/>
</svg>
