<svg xmlns="http://www.w3.org/2000/svg" width="88.903" height="83.994" viewBox="0 0 88.903 83.994"><path d="M76.622,39.372V2.723A2.675,2.675,0,0,1,79.246,0a36.75,36.75,0,0,1,36.747,36.747,2.675,2.675,0,0,1-2.723,2.625ZM32,44.622A39.373,39.373,0,0,1,65.958,5.627a2.482,2.482,0,0,1,2.789,2.526V47.246L94.421,72.92a2.472,2.472,0,0,1-.246,3.79A39.363,39.363,0,0,1,32,44.622Zm86.356,2.625a2.491,2.491,0,0,1,2.526,2.789A39.239,39.239,0,0,1,108.759,73.38a2.493,2.493,0,0,1-3.478-.115L79.246,47.246Z" transform="translate(-32)" fill="#fff"/></svg>