<svg width="27" height="27" viewBox="0 0 27 27" fill="none" xmlns="http://www.w3.org/2000/svg">
<g clip-path="url(#clip0_11_22)">
<path d="M15.1619 0.335999C13.0273 0.335999 11.291 2.07235 11.291 4.20667V15.7462C11.291 16.3914 11.8141 16.9145 12.4596 16.9145C13.1048 16.9145 13.6281 16.3917 13.6281 15.7462V4.20667C13.6281 3.3611 14.3161 2.6729 15.1619 2.6729C16.0072 2.6729 16.6951 3.3611 16.6951 4.20667V8.44474V15.7462V20.6394C16.6951 22.4921 15.1884 23.9985 13.336 23.9985C11.4836 23.9985 9.97658 22.4915 9.97658 20.6394V8.44474C9.97658 7.79926 9.45347 7.27615 8.80799 7.27615C8.16279 7.27615 7.6394 7.79926 7.6394 8.44474V20.6394C7.6394 23.7805 10.1949 26.336 13.336 26.336C16.4771 26.336 19.0326 23.7808 19.0326 20.6394V15.7462V8.44474V4.20667C19.0326 2.07235 17.2962 0.335999 15.1619 0.335999Z" fill="white"/>
</g>
<defs>
<clipPath id="clip0_11_22">
<rect width="26" height="26" fill="white" transform="translate(0.335999 0.335999)"/>
</clipPath>
</defs>
</svg>
