<svg xmlns="http://www.w3.org/2000/svg" width="71.613" height="82.63" viewBox="0 0 71.613 82.63"><path d="M18.754,59.543V34.754A2.762,2.762,0,0,1,21.509,32H32.526a2.762,2.762,0,0,1,2.754,2.754V41.64a1.381,1.381,0,0,0,1.377,1.377h5.509a1.381,1.381,0,0,0,1.377-1.377V34.754A2.762,2.762,0,0,1,46.3,32H57.315a2.762,2.762,0,0,1,2.754,2.754V41.64a1.381,1.381,0,0,0,1.377,1.377h5.509a1.381,1.381,0,0,0,1.377-1.377V34.754A2.762,2.762,0,0,1,71.087,32H82.1a2.762,2.762,0,0,1,2.754,2.754V59.543a5.471,5.471,0,0,1-2.2,4.407l-8.814,6.61L76.6,95.35H27.017l2.754-24.789-8.814-6.61A5.471,5.471,0,0,1,18.754,59.543Zm30.3,16.526h5.509a2.762,2.762,0,0,0,2.754-2.754V65.052a5.509,5.509,0,1,0-11.017,0v8.263A2.762,2.762,0,0,0,49.052,76.069ZM17.136,107.985l7.127-7.127H79.35l7.127,7.127a3.9,3.9,0,0,1-2.754,6.645H19.891a3.9,3.9,0,0,1-2.754-6.645Z" transform="translate(-16 -32)" fill="#fff"/></svg>