<svg xmlns="http://www.w3.org/2000/svg" width="88.104" height="82.597" viewBox="0 0 88.104 82.597"><path d="M0,84.831a5.5,5.5,0,0,0,5.506,5.506h9.413a13.761,13.761,0,0,0,25.226,0H82.6a5.506,5.506,0,1,0,0-11.013H40.146a13.761,13.761,0,0,0-25.226,0H5.506A5.5,5.5,0,0,0,0,84.831Zm22.026,0a5.506,5.506,0,1,1,5.506,5.506A5.506,5.506,0,0,1,22.026,84.831ZM55.065,57.3A5.506,5.506,0,1,1,60.571,62.8,5.506,5.506,0,0,1,55.065,57.3Zm5.506-13.766a13.739,13.739,0,0,0-12.613,8.26H5.506a5.506,5.506,0,0,0,0,11.013H47.958a13.761,13.761,0,0,0,25.226,0H82.6a5.506,5.506,0,1,0,0-11.013H73.184A13.739,13.739,0,0,0,60.571,43.532Zm-27.532-8.26a5.506,5.506,0,1,1,5.506-5.506A5.506,5.506,0,0,1,33.039,35.273ZM45.652,24.26a13.761,13.761,0,0,0-25.226,0H5.506a5.506,5.506,0,0,0,0,11.013H20.426a13.761,13.761,0,0,0,25.226,0H82.6a5.506,5.506,0,1,0,0-11.013Z" transform="translate(0 -16)" fill="#fff"/></svg>