<svg xmlns="http://www.w3.org/2000/svg" width="65.214" height="30.833" viewBox="0 0 65.214 30.833"><g transform="translate(-16939.896 -10137.386)"><path d="M40.8,20.91V4.522h5.177V5.581h0a4.59,4.59,0,0,1,3.475-1.512,5.529,5.529,0,0,1,3.89,1.544L49.394,9.559a1.9,1.9,0,0,0-1.13-.383A2.452,2.452,0,0,0,46,11.852l-.026,9.057ZM23.738,13.065V4.406h5.01v8.605a2.5,2.5,0,0,0,2.187,2.562,2.332,2.332,0,0,0,2.183-2.53L33.146,4.4h4.978V20.208H33.146V19A4.44,4.44,0,0,1,29.8,20.44C26.334,20.44,23.9,17.479,23.738,13.065ZM-.042,20.183V-.592H4.939V5.67A5.574,5.574,0,0,1,8.479,4.02h.156c3.539,0,5.9,3.123,6.01,7.955A8.344,8.344,0,0,1,12.392,17.9a7.085,7.085,0,0,1-5.143,2.274H4.939v.009Zm4.981-9.053v3.916H7.248c1.316,0,2.385-1.4,2.385-3.128l0-.136a2.829,2.829,0,0,0-.673-2.013,2.262,2.262,0,0,0-1.229-.56c-.042,0-.086-.006-.128-.006A3.58,3.58,0,0,0,4.939,11.131ZM16.846,20.18V-.572h4.982V20.18Z" transform="translate(16939.938 10137.978)" fill="#fff"/><path d="M7.354,25.314a7.669,7.669,0,0,1-2.8-.529A7.547,7.547,0,0,1,2.21,23.337l3.765-3.792a2.327,2.327,0,0,0,1.379.417,2.479,2.479,0,0,0,2.459-2.493V15.561a4.67,4.67,0,0,1-3.3,1.288,5.778,5.778,0,0,1-2.448-.524,5.832,5.832,0,0,1-1.953-1.492A7.554,7.554,0,0,1,.765,12.518,10.674,10.674,0,0,1,.137,9.51l.024-.023s4.12-4.181,4.41-4.471S5.4,4.708,5.4,5.5V9.024a2.645,2.645,0,0,0,2.316,2.7A2.2,2.2,0,0,0,9.815,10.2V0h5.29V17.471A7.805,7.805,0,0,1,7.354,25.314Z" transform="translate(16990.004 10142.904)" fill="#fff"/></g></svg>