<svg xmlns="http://www.w3.org/2000/svg" width="82.63" height="82.63" viewBox="0 0 82.63 82.63"><path d="M51.644,15.493H30.986L23.337,4.019A2.581,2.581,0,0,1,25.483,0H57.147a2.581,2.581,0,0,1,2.146,4.019ZM30.986,20.658H51.644c.613.4,1.307.855,2.1,1.356C62.893,27.872,82.63,40.492,82.63,67.137A15.5,15.5,0,0,1,67.137,82.63H15.493A15.5,15.5,0,0,1,0,67.137C0,40.492,19.738,27.872,28.888,22.013h0c.775-.5,1.485-.952,2.1-1.356Zm13.557,14.2a3.228,3.228,0,1,0-6.455,0v2.259A12.451,12.451,0,0,0,34.5,38.491a8.057,8.057,0,0,0-4.164,7.085,7.521,7.521,0,0,0,3.986,6.568A25.248,25.248,0,0,0,40.072,54.4l.274.081a19.951,19.951,0,0,1,4.519,1.727c.823.516.936.871.952,1.323a1.745,1.745,0,0,1-.952,1.695,6.414,6.414,0,0,1-3.454.759,20.089,20.089,0,0,1-5.665-1.372q-.557-.194-1.162-.387a3.225,3.225,0,1,0-2.05,6.117c.307.1.646.21.984.339h0a37.473,37.473,0,0,0,4.551,1.356v2.389a3.228,3.228,0,1,0,6.455,0V66.2a11.575,11.575,0,0,0,3.744-1.452,8.19,8.19,0,0,0,4-7.262,7.879,7.879,0,0,0-3.97-6.714,25.338,25.338,0,0,0-5.987-2.421h0l-.113-.032a22.536,22.536,0,0,1-4.567-1.695c-.839-.5-.855-.791-.855-1.081a1.611,1.611,0,0,1,1-1.5,7.026,7.026,0,0,1,3.47-.807,20.5,20.5,0,0,1,5.035.839,3.232,3.232,0,1,0,1.662-6.246c-1.049-.274-2.211-.549-3.405-.759V34.86Z" fill="#fff"/></svg>