<svg width="83" height="83" viewBox="0 0 83 83" fill="none" xmlns="http://www.w3.org/2000/svg">
<path d="M77.4355 20.6686C73.7244 14.3107 68.6904 9.27675 62.3324 5.56579C55.9732 1.85501 49.0312 0 41.5012 0C33.972 0 27.028 1.85501 20.6699 5.56579C14.3115 9.27618 9.27751 14.3101 5.56635 20.6686C1.85501 27.0274 0 33.9714 0 41.5001C0 49.0292 1.85558 55.972 5.56579 62.3312C9.27675 68.6891 14.3107 73.7231 20.6691 77.4344C27.028 81.145 33.9714 83.0002 41.5005 83.0002C49.0295 83.0002 55.9738 81.145 62.3322 77.4344C68.6903 73.7244 73.724 68.6891 77.4348 62.3312C81.145 55.9726 82.9998 49.0288 82.9998 41.5001C83 33.9707 81.145 27.0264 77.4355 20.6686ZM48.4184 67.4377C48.4184 67.9415 48.2552 68.3562 47.9314 68.6798C47.6089 69.0037 47.1942 69.1657 46.6904 69.1657H36.3142C35.81 69.1657 35.3955 69.0037 35.0713 68.6798C34.7468 68.356 34.5848 67.9415 34.5848 67.4377V57.0615C34.5848 56.5576 34.7467 56.143 35.0713 55.8193C35.3955 55.496 35.81 55.3342 36.3142 55.3342H46.6904C47.1942 55.3342 47.6089 55.496 47.9314 55.8193C48.2552 56.1431 48.4184 56.5576 48.4184 57.0615V67.4377ZM61.5759 35.5016C61.125 36.8347 60.6212 37.925 60.0629 38.7712C59.5047 39.6178 58.7026 40.4826 57.6575 41.3648C56.6146 42.2473 55.7854 42.8782 55.1715 43.2571C54.5601 43.6347 53.6766 44.1491 52.5251 44.7968C51.3359 45.4806 50.3552 46.3726 49.5811 47.4719C48.8064 48.5704 48.4191 49.4616 48.4191 50.1455C48.4191 50.6508 48.256 51.0651 47.932 51.3891C47.6089 51.713 47.1944 51.8748 46.6904 51.8748H36.3147C35.8105 51.8748 35.396 51.713 35.0718 51.3891C34.7472 51.0651 34.5858 50.6508 34.5858 50.1455V48.2C34.5858 45.7864 35.5308 43.5249 37.4223 41.4181C39.3139 39.3105 41.3943 37.7524 43.6642 36.7436C45.3922 35.9513 46.6175 35.1405 47.3379 34.3121C48.0593 33.4837 48.4195 32.3838 48.4195 31.0156C48.4195 29.8265 47.7435 28.7639 46.3923 27.8267C45.0411 26.8904 43.5022 26.4221 41.7725 26.4221C39.8987 26.4221 38.3501 26.8546 37.125 27.7195C35.9358 28.5835 34.3872 30.241 32.4777 32.6903C32.1535 33.1229 31.703 33.3396 31.1265 33.3396C30.6943 33.3396 30.3519 33.2318 30.1 33.0162L22.9676 27.6122C22.1392 26.9636 21.9951 26.2075 22.5349 25.3427C27.1466 17.6694 33.8289 13.8328 42.5825 13.8328C45.7174 13.8328 48.7799 14.5715 51.7697 16.0487C54.7594 17.5252 57.2545 19.6149 59.2545 22.3171C61.252 25.0183 62.2535 27.9548 62.2535 31.125C62.2508 32.7099 62.0248 34.1683 61.5759 35.5016Z" fill="white"/>
</svg>
