<svg width="14" height="14" viewBox="0 0 14 14" fill="none" xmlns="http://www.w3.org/2000/svg">
<g clip-path="url(#clip0_1_68)">
<path d="M9.34953 1.60193C7.21381 -0.53379 3.73777 -0.53379 1.60205 1.60193C-0.533204 3.73811 -0.533204 7.21369 1.60205 9.34987C3.50397 11.2513 6.4661 11.455 8.60043 9.97026C8.64534 10.1828 8.74812 10.3856 8.91341 10.5508L12.0237 13.6611C12.4769 14.1135 13.2094 14.1135 13.6603 13.6611C14.1131 13.2083 14.1131 12.4759 13.6603 12.0245L10.55 8.91328C10.3857 8.74939 10.1824 8.64614 9.96992 8.60123C11.4556 6.46644 11.2519 3.50477 9.34953 1.60193ZM8.36755 8.36789C6.77306 9.96239 4.17806 9.96239 2.58403 8.36789C0.990458 6.7734 0.990458 4.17887 2.58403 2.58437C4.17806 0.990334 6.77306 0.990334 8.36755 2.58437C9.96205 4.17887 9.96205 6.7734 8.36755 8.36789Z" fill="white"/>
</g>
<defs>
<clipPath id="clip0_1_68">
<rect width="14" height="14" fill="white"/>
</clipPath>
</defs>
</svg>
