<svg xmlns="http://www.w3.org/2000/svg" width="83.04" height="88.086" viewBox="0 0 83.04 88.086"><path d="M97.472,28.668a3.9,3.9,0,0,1-1.1,4.233l-7.451,6.78a32.8,32.8,0,0,1,0,8.742l7.451,6.78a3.9,3.9,0,0,1,1.1,4.233,42.655,42.655,0,0,1-2.719,5.9l-.809,1.394a43.786,43.786,0,0,1-3.8,5.369,3.9,3.9,0,0,1-4.216,1.17l-9.585-3.046A33.111,33.111,0,0,1,68.77,74.6l-2.151,9.826a3.889,3.889,0,0,1-3.132,3.063,44.7,44.7,0,0,1-14.627,0,3.889,3.889,0,0,1-3.132-3.063L43.578,74.6a33.111,33.111,0,0,1-7.571-4.371l-9.567,3.063a3.928,3.928,0,0,1-4.216-1.17,43.787,43.787,0,0,1-3.8-5.369l-.809-1.394a42.654,42.654,0,0,1-2.719-5.9,3.9,3.9,0,0,1,1.1-4.233l7.451-6.78a33.76,33.76,0,0,1-.293-4.388,33.3,33.3,0,0,1,.293-4.371L15.994,32.9a3.9,3.9,0,0,1-1.1-4.233,42.653,42.653,0,0,1,2.719-5.9l.809-1.394A43.787,43.787,0,0,1,22.223,16a3.9,3.9,0,0,1,4.216-1.17l9.585,3.046a33.112,33.112,0,0,1,7.571-4.371l2.151-9.826A3.889,3.889,0,0,1,48.878.619,42.658,42.658,0,0,1,56.191,0,44.464,44.464,0,0,1,63.5.6a3.889,3.889,0,0,1,3.132,3.063l2.151,9.826a33.112,33.112,0,0,1,7.571,4.371l9.585-3.046a3.928,3.928,0,0,1,4.216,1.17,43.788,43.788,0,0,1,3.8,5.369l.809,1.394a42.653,42.653,0,0,1,2.719,5.9ZM56.191,57.818A13.766,13.766,0,1,0,42.425,44.052,13.766,13.766,0,0,0,56.191,57.818Z" transform="translate(-14.662)" fill="#fff"/></svg>