<svg width="59" height="59" viewBox="0 0 59 59" fill="none" xmlns="http://www.w3.org/2000/svg">
<g clip-path="url(#clip0_27_263)">
<path d="M57.1232 25.4366L56.7305 24.6623H53.2276C52.5547 20.0459 51.7232 16.6351 51.6642 16.3991L51.2936 14.8984H46.2918L40.6134 3.04385L20.0846 14.8984H3.67436L3.24664 16.2904C3.11206 16.7218 0 26.9374 0 35.5637C0 44.1938 3.11574 54.1623 3.25033 54.5771L3.68543 55.9562H51.2936L51.6642 54.4591C51.7287 54.1918 52.7261 50.0989 53.4212 44.7727H49.4315C49.0093 47.8442 48.4987 50.4621 48.1631 52.0108H6.61312C5.78164 49.037 3.94907 41.7805 3.94907 35.5619C3.94907 29.3157 5.7927 21.884 6.62234 18.8493H48.1686C48.4452 20.1528 48.8526 22.2158 49.2269 24.6642H31.7382L31.3953 25.5823C31.3178 25.7832 29.5332 30.5914 29.5332 34.7064C29.5332 38.8159 31.3197 43.6259 31.3953 43.8269L31.7382 44.745H56.7323L57.125 43.9725C57.2006 43.8214 59.0018 40.2171 59.0018 34.7101C58.9963 29.1921 57.1988 25.5878 57.1232 25.4366ZM54.92 41.9095H33.7367C33.25 40.407 32.3687 37.317 32.3687 34.7064C32.3687 32.0922 33.2518 29.0004 33.7367 27.496H54.92C55.3773 28.7165 56.159 31.2994 56.159 34.7064C56.159 38.1043 55.3773 40.689 54.92 41.9095Z" fill="white"/>
<path d="M39.8501 38.4527C41.9211 38.4527 43.6 36.7738 43.6 34.7027C43.6 32.6317 41.9211 30.9528 39.8501 30.9528C37.779 30.9528 36.1001 32.6317 36.1001 34.7027C36.1001 36.7738 37.779 38.4527 39.8501 38.4527Z" fill="white"/>
</g>
<defs>
<clipPath id="clip0_27_263">
<rect width="59" height="59" fill="white"/>
</clipPath>
</defs>
</svg>
